<svg xmlns="http://www.w3.org/2000/svg" width="200" height="200" viewBox="0 0 200 200">
<!-- SVG created with Arrow, by QuiverAI (https://quiver.ai) -->
  <path d="m68.99 21.42h61.69c7.88 0 13.09 7.11 13.09 14.04v60.16c0 8.17-6.83 13.79-13.49 13.79h-60.78c-7.88 0-13.92-6.68-13.92-13.61v-60.06c0-7.69 5.84-14.32 13.41-14.32z" fill="#579A0D"/>
  <path d="m138.6 38.41-0.47 1.55c-4.91-2.28-10.69-5.15-13.57-8.08l-0.12-1.72c4.79 3.68 8.66 5.9 14.16 8.25zm-1.07 7.32 0.75 8.15-5.52-9.06-1.54-7.11c2.8 1.4 4.61 4.44 6.31 8.02zm-1.32 8.14c0.87 1.6 2.35 3.33 2.65 6.12l-0.2 9.81c-0.8-8.09-2.83-12.63-6.59-16.82 0.53-0.24 3.06-0.34 4.14 0.89z" fill="#FEFFFE"/>
  <path d="m62.29 34.72c7.72 3.27 14.63 4.46 22.02 6.27l2.67 0.11-0.97-0.99-4.2-2.43-9.96-4.57-4.13-3.38 0.4-0.95 4.57 1.38-0.95-2.82 1.18-0.26 3.29 3.54-0.86-3.74 2.5-0.09 3.72 4.4 0.56-4.28 1.72-0.15 1.47 8.95 10.77 10.02-5.29-19.08 2.67 0.06c1.75 5.26 3.24 11.21 3.61 14.3l-2.53-4.61 1.39 6.51 8.74 10.62c1.3-9.45-2.62-19.35-6.77-26.62h2.5c4.48 8.45 7.54 18.14 7.17 29.8l4.43 3.39c2.61-7.96-1.93-18.52-6.29-33.22 4.5 3.14 10.31 12.97 15.2 21.54l-6.54-20.82 1.24 1.5c5.14 7.65 9.15 17.06 11.02 24.66l1.94 6.08 3.91 14.15c1.22 1.82 2.49 1.15 2.89-0.37 1.49-5.76-0.7-9.21-3.93-10.91l0.87-1.63-4.19-9.22-7-16.29c4.98 5.16 10.69 14.41 15.16 19.1l1.43 4.64 0.19 20.52-1.2 1.28 1.08 1.3c-10.97 5.7-30.41 12.48-54.81 11.1-1.19-0.29-1.94-1.7 0.51-1.7 17.35 0 30.69-2.58 53.47-9.98l0.06-1.31-2.18-0.71c-14.69 4.84-31.23 7.13-54.83 1.97-2.9-1.01-2.82-2.01-0.98-1.94 13.66 0.57 17.93 4.07 49.78-0.83l1.65-1.26-3-0.74-0.48 1.14c-16.77 0.77-30.34 0.37-46.78-6.39-3.06-1.04-7.27-2.39-9.09-4.88l0.6-0.38c8.86 3.75 21.75 7.21 32.4 7.12 6.1-0.06 13.81-0.75 19.67-1.15l-6.59-3.56c-10.47 1.1-29.73-3.78-47.18-10l-2.4-1.6 0.51-0.2c13.8 3.51 25.07 7.6 39.79 9.15 3.41 0.06 5.16-0.32 4.25-2.33l-3.33-2.47c-13.17 0-29.26-4.55-41.66-8.85l-6.19-2.92v-1.93c7.14 3.55 20.88 7.68 29.33 9.09l7.31-4.07-1.98-1.12c-7.92 0.69-23.33-5.01-35.1-8.95v-2.26c8.74 4.18 18.93 6.2 27.92 6.89l4.45-0.46-2.72-2.37c-9.58-0.8-20-4.5-27.9-8.19v-1.6zm47.13 0.09c3.64 7.35 6.69 15.26 5.43 25l1.52 3.92c2.01 2.41 4.54 3.36 5.05 0.29 0.97-6.54-5.94-21.34-12-29.21zm15.99 30.81-2.49 2.56 5.71 5.44 0.48-1.18-3.7-6.82zm-33.33-8.82c3.2 1.08 6.93 1.51 11.05 1.14l1.08-1.03-6.13-4.7-6 4.59z" fill="#FEFFFE"/>
  <path d="m138.1 89.11-7.92 4.83v-0.68l7.72-5.55 0.2 1.4zm-0.92 5.35c-1.05 3.53-5.32 5.63-9 6.98l-8.06 3.14-1.07-0.61c6.9-3.19 12.11-6.53 18.13-9.51zm0.14-6.95c-9.87 6.32-25.37 12.47-41.91 12.27l-0.4-0.23-0.28-0.4 0.8-0.09c12.72 1.15 28.48-6 41.82-12.87l-0.03 1.32z" fill="#FEFFFE"/>
  <path d="m23.99 148.1v5.06c0 6.48-3.33 10.21-9.63 10.21s-9.45-3.74-9.45-10.21v-19.39c0-6.6 3.15-11.2 9.45-11.2s9.44 4.14 9.44 10.68v3.14h-5.04v-2.85c0-3.49-1.27-6.37-4.52-6.37-3.28 0-4.5 2.88-4.5 6.37v19.85c0 3.49 1.22 5.59 4.5 5.59 3.25 0 4.57-2.1 4.57-5.59v-5.29h5.18zm3.72-14.33c0-6.6 3.23-11.2 9.64-11.2 6.46 0 9.69 3.75 10.23 10.22v19.39c-0.54 6.53-3.77 11.19-10.23 11.19-6.41 0-9.64-4.39-9.64-10.99v-18.61zm5.02 18.84c0 3.49 1.38 6.37 4.73 6.37 3.39 0 4.93-2.88 4.93-6.37v-19.39c0-3.49-1.48-6.05-4.93-6.05-3.35 0-4.73 2.56-4.73 6.05v19.39zm38.18-4.51v5.06c0 6.48-3.33 10.21-9.63 10.21s-9.45-3.74-9.45-10.21v-19.39c0-6.6 3.15-11.2 9.45-11.2s9.44 4.14 9.44 10.68v3.14h-4.26v-2.85c0-3.49-1.27-6.37-4.52-6.37-3.28 0-4.5 2.88-4.5 6.37v19.85c0 3.49 1.22 5.59 4.5 5.59 3.25 0 4.57-2.1 4.57-5.59v-5.29h4.4zm9.39-3.2v17.87h-4.85v-40.2h4.85v18.2h10.36v-18.2h4.85v40.2h-4.85v-17.87h-10.36zm19.81-11.13c0-6.6 3.23-11.2 9.64-11.2 6.46 0 9.69 3.75 9.69 10.22v19.39c0 6.53-3.23 11.19-9.69 11.19-6.41 0-9.64-4.39-9.64-10.99v-18.61zm4.6 18.84c0 3.49 1.38 6.37 4.73 6.37 3.39 0 4.93-2.88 4.93-6.37v-19.39c0-3.49-1.48-6.05-4.93-6.05-3.35 0-4.73 2.56-4.73 6.05v19.39zm19.6-30.04h9.81c6.46 0 9.29 2.94 9.29 9.47v1.67c0 5.11-2.07 6.78-4.35 7.66 2.59 0.94 5.26 3.07 5.26 8.71v2.99c0 6.65-3.13 9.7-9.59 9.7h-10.42v-40.2zm8.68 17.63c3.83 0 5.72-1.49 5.72-6.09v-1.55c0-3.98-1.42-5.12-4.99-5.12h-4.31v12.76h3.58zm1.32 18.48c3.51 0 5.05-1.95 5.05-5.98v-3.2c0-4.6-2.07-5.95-6.14-5.95h-3.81v15.13h4.9zm21-13.01-2.35 3.54v13.56h-4.55v-40.2h4.85v19.43l11.39-19.43h4.85l-10.91 18.8 11.39 21.4h-5.13l-9.54-17.1zm22.44 8.9-1.85 8.2h-4.39l8.1-40.2h6.91l7.9 40.2h-4.7l-1.71-8.2h-10.26zm0.57-4.6h9.4l-4.85-21.04-4.55 21.04z" fill="#579A0D"/>
  <path d="m8.01 172.6-0.8 1.07v2.19h-1.21v-6.91h1.21v3.3l2.53-3.3h1.27l-2.27 3.03 2.35 3.88h-1.28l-1.8-3.26zm3.1-1.93h0.89v0.71c0.32-0.51 0.77-0.79 1.35-0.79 1.23 0 1.88 0.96 1.88 2.59v0.41c0 1.52-0.77 2.39-1.88 2.39-0.54 0-0.99-0.28-1.27-0.76v2.44l-0.97 0.29v-7.28zm3.11 2.87v-0.37c0-1.21-0.41-1.83-1.2-1.83-0.68 0-1.04 0.62-1.04 1.57v0.66c0 0.96 0.34 1.68 1.04 1.68 0.84 0 1.2-0.63 1.2-1.71zm2.71 2.1-1.64-4.97h0.97l1.21 3.91 1.11-3.91h0.97l-1.63 5.51c-0.36 1.22-0.66 1.77-1.91 1.77h-0.35v-0.78h0.27c0.67 0 0.86-0.41 1-1.53zm3.34-4.97h3.5v5.19h-0.91v-4.42h-1.68v4.42h-0.91v-5.19zm4.75 0h0.91v2.19h1.81v-2.19h0.91v5.19h-0.91v-2.28h-1.81v2.28h-0.91v-5.19zm8.36 3.55c-0.16 1.13-0.85 1.76-1.94 1.76-1.33 0-2.03-1.12-2.03-2.57v-0.35c0-1.45 0.76-2.5 1.98-2.5 1.28 0 1.99 1.04 1.99 2.58v0.41h-3.02c0.03 1.01 0.49 1.71 1.17 1.71 0.58 0 0.88-0.33 1.03-1.04h0.82zm-3.01-1.39h2.12c-0.04-0.99-0.46-1.56-1.1-1.56-0.6 0-0.93 0.64-1.02 1.56zm4.15-2.16h0.91v3.76l1.9-3.76h0.97v5.19h-0.91v-3.67l-1.9 3.67h-0.97v-5.19zm0.52-2.11h0.67c0.03 0.35 0.18 0.57 0.6 0.57 0.44 0 0.59-0.22 0.6-0.57h0.68c-0.03 0.77-0.5 1.24-1.28 1.24-0.74 0-1.24-0.47-1.27-1.24zm4.12 2.11h0.91v4.47h1.63v-4.47h0.91v4.47h1.63v-4.47h0.91v5.19h-5.99v-5.19zm7.07 3.78c0-1.13 0.96-1.77 2.29-1.77h0.61v-0.49c0-0.63-0.32-0.86-0.86-0.86-0.56 0-0.84 0.34-0.95 0.92h-0.77c0.13-1.07 0.82-1.69 1.84-1.69 1.03 0 1.66 0.55 1.66 1.7v3.6h-0.82v-0.57c-0.35 0.45-0.79 0.69-1.37 0.69-0.93 0-1.63-0.55-1.63-1.53zm2.9-0.38v-0.75h-0.61c-0.9 0-1.41 0.4-1.41 1.07 0 0.54 0.35 0.83 0.91 0.83 0.66 0 1.11-0.49 1.11-1.15zm2.65-0.2c-0.62-0.24-1.07-0.8-1.07-1.56 0-1.08 0.75-1.64 1.81-1.64h1.69v5.19h-0.91v-1.79h-0.69l-1.17 1.79h-1.06l1.4-1.99zm1.52-0.53v-1.95h-0.69c-0.67 0-1.03 0.33-1.03 0.97 0 0.63 0.36 0.98 1.03 0.98h0.69zm5.45 0.58-0.58 1.94h-1.09l2.23-6.91h1.09l2.3 6.91h-1.14l-0.58-1.94h-2.23zm0.24-0.78h1.75l-0.89-3.03-0.86 3.03zm5.75 0.44-0.63 0.81v1.47h-0.91v-5.19h0.91v2.6l1.9-2.6h1.03l-1.7 2.44 1.9 2.75h-1.08l-1.42-2.28zm2.82 0.87c0-1.13 0.96-1.77 2.29-1.77h0.61v-0.49c0-0.63-0.31-0.86-0.86-0.86s-0.83 0.34-0.94 0.92h-0.78c0.13-1.07 0.83-1.69 1.85-1.69 1.03 0 1.65 0.55 1.65 1.7v3.6h-0.82v-0.57c-0.35 0.45-0.79 0.69-1.36 0.69-0.94 0-1.64-0.55-1.64-1.53zm2.9-0.38v-0.75h-0.61c-0.9 0-1.4 0.4-1.4 1.07 0 0.54 0.34 0.83 0.9 0.83 0.66 0 1.11-0.49 1.11-1.15zm1.7 1.13h0.46c0.44-0.84 0.69-1.79 0.69-3.12v-1.41h3v4.53h0.7v2.08h-0.84v-1.42h-3.21v1.42h-0.8v-2.08zm3.24 0v-3.81h-1.27v0.92c0 1.08-0.25 2.04-0.61 2.89h1.88zm5.79-0.98c-0.16 1.13-0.84 1.76-1.93 1.76-1.34 0-2.03-1.12-2.03-2.57v-0.35c0-1.45 0.75-2.5 1.98-2.5 1.28 0 1.98 1.04 1.98 2.58v0.41h-3.01c0.03 1.01 0.49 1.71 1.17 1.71 0.57 0 0.87-0.33 1.02-1.04h0.82zm-3-1.39h2.11c-0.04-0.99-0.45-1.56-1.09-1.56-0.6 0-0.94 0.64-1.02 1.56zm4.14-2.16h1.22l1.26 3.89 1.27-3.89h1.21v5.19h-0.91v-3.61l-1.15 3.44h-0.87l-1.12-3.44v3.61h-0.91v-5.19zm6.03 0h0.91v3.76l1.9-3.76h0.97v5.19h-0.91v-3.67l-1.9 3.67h-0.97v-5.19zm5.81 3.2c-0.62-0.24-1.06-0.8-1.06-1.56 0-1.08 0.74-1.64 1.8-1.64h1.69v5.19h-0.91v-1.79h-0.68l-1.17 1.79h-1.07l1.4-1.99zm1.52-0.53v-1.95h-0.69c-0.67 0-1.03 0.33-1.03 0.97 0 0.63 0.36 0.98 1.03 0.98h0.69zm3.83 1.86c0.59 0 0.79-0.73 0.86-2.21l0.1-2.32h3.06v5.19h-0.91v-4.42h-1.36l-0.07 1.59c-0.11 1.98-0.57 2.95-1.68 2.95v-0.78zm4.89-0.75c0-1.13 0.96-1.77 2.29-1.77h0.61v-0.49c0-0.63-0.31-0.86-0.86-0.86s-0.83 0.34-0.94 0.92h-0.78c0.13-1.07 0.83-1.69 1.85-1.69 1.03 0 1.65 0.55 1.65 1.7v3.6h-0.82v-0.57c-0.35 0.45-0.79 0.69-1.36 0.69-0.94 0-1.64-0.55-1.64-1.53zm2.9-0.38v-0.75h-0.61c-0.9 0-1.4 0.4-1.4 1.07 0 0.54 0.34 0.83 0.9 0.83 0.66 0 1.11-0.49 1.11-1.15zm2.11-3.4h0.91v2.19h1.81v-2.19h0.91v5.19h-0.91v-2.28h-1.81v2.28h-0.91v-5.19zm4.26 4.53h0.46c0.44-0.84 0.69-1.79 0.69-3.12v-1.41h3v4.53h0.7v2.08h-0.84v-1.42h-3.21v1.42h-0.8v-2.08zm3.24 0v-3.81h-1.27v0.92c0 1.08-0.25 2.04-0.62 2.89h1.89zm2.37-4.53h0.91v4.47h1.63v-4.47h0.91v4.47h1.63v-4.47h0.91v5.19h-5.99v-5.19zm7.07 3.78c0-1.13 0.96-1.77 2.29-1.77h0.61v-0.49c0-0.63-0.32-0.86-0.86-0.86-0.56 0-0.84 0.34-0.95 0.92h-0.77c0.13-1.07 0.83-1.69 1.85-1.69 1.03 0 1.65 0.55 1.65 1.7v3.6h-0.82v-0.57c-0.35 0.45-0.79 0.69-1.37 0.69-0.93 0-1.63-0.55-1.63-1.53zm2.9-0.38v-0.75h-0.61c-0.9 0-1.41 0.4-1.41 1.07 0 0.54 0.35 0.83 0.91 0.83 0.66 0 1.11-0.49 1.11-1.15zm3.88-3.45c0.34 0 0.66 0.11 0.93 0.32v-2.47l0.91-0.29v2.72c0.28-0.2 0.61-0.31 0.95-0.31 1.11 0 1.82 0.91 1.82 2.59v0.3c0 1.58-0.77 2.5-1.82 2.5-0.37 0-0.69-0.12-0.95-0.34v2.02l-0.91 0.29v-2.34c-0.26 0.22-0.58 0.37-0.98 0.37-1.06 0-1.75-0.92-1.75-2.5v-0.3c0-1.68 0.75-2.56 1.8-2.56zm0.18 4.6c0.33 0 0.59-0.18 0.75-0.44v-3.07c-0.2-0.23-0.46-0.37-0.8-0.37-0.75 0-1.02 0.68-1.02 1.88v0.29c0 1.11 0.31 1.71 1.07 1.71zm3.52-1.74v-0.26c0-1.26-0.36-1.88-1.06-1.88-0.32 0-0.57 0.14-0.8 0.38v3.12c0.2 0.23 0.46 0.38 0.8 0.38 0.75 0 1.06-0.69 1.06-1.74zm2.15-2.04h-1.37v-0.77h3.66v0.77h-1.37v4.42h-0.92v-4.42zm2.77-0.77h0.91v2.19h1.81v-2.19h0.91v5.19h-0.91v-2.28h-1.81v2.28h-0.91v-5.19zm4.36 2.39c0-1.45 0.82-2.5 2.05-2.5 1.28 0 2.04 1.05 2.04 2.59v0.25c0 1.44-0.82 2.58-2.04 2.58-1.29 0-2.05-1.14-2.05-2.59v-0.33zm3.12 0.31v-0.2c0-1.16-0.51-1.88-1.19-1.88-0.69 0-1.11 0.77-1.11 1.87v0.2c0 1.16 0.51 1.9 1.18 1.9 0.69 0 1.12-0.79 1.12-1.89zm1.57-2.7h2.65v0.77h-1.74v4.42h-0.91v-5.19zm3.1 2.39c0-1.45 0.82-2.5 2.05-2.5 1.28 0 2.04 1.05 2.04 2.59v0.25c0 1.44-0.82 2.58-2.04 2.58-1.29 0-2.05-1.14-2.05-2.59v-0.33zm3.12 0.31v-0.2c0-1.16-0.51-1.88-1.19-1.88-0.69 0-1.11 0.77-1.11 1.87v0.2c0 1.16 0.51 1.9 1.18 1.9 0.69 0 1.12-0.79 1.12-1.89zm3.66 1.83h0.46c0.44-0.84 0.69-1.79 0.69-3.12v-1.41h3v4.53h0.7v2.08h-0.84v-1.42h-3.21v1.42h-0.8v-2.08zm3.24 0v-3.81h-1.27v0.92c0 1.08-0.25 2.04-0.62 2.89h1.89zm2.38-4.53h0.91v3.76l1.9-3.76h0.97v5.19h-0.91v-3.67l-1.9 3.67h-0.97v-5.19zm4.7 3.69h0.82c0.08 0.55 0.38 0.9 0.98 0.9 0.61 0 0.93-0.35 0.93-0.94 0-0.55-0.35-0.84-1.02-0.84h-0.51v-0.67h0.51c0.62 0 0.91-0.29 0.91-0.79 0-0.46-0.29-0.73-0.8-0.73-0.56 0-0.82 0.4-0.9 0.9h-0.78c0.13-1.01 0.76-1.63 1.74-1.63 0.97 0 1.59 0.55 1.59 1.4 0 0.63-0.42 1.03-0.94 1.26 0.63 0.14 1.08 0.54 1.08 1.25 0 0.96-0.69 1.51-1.81 1.51-1.07 0-1.7-0.6-1.8-1.62zm4.4 0.09c0-1.13 0.96-1.77 2.3-1.77h0.61v-0.49c0-0.63-0.32-0.86-0.86-0.86-0.55 0-0.84 0.34-0.95 0.92h-0.77c0.13-1.07 0.83-1.69 1.85-1.69 1.03 0 1.65 0.55 1.65 1.7v3.6h-0.82v-0.57c-0.35 0.45-0.79 0.69-1.37 0.69-0.93 0-1.64-0.55-1.64-1.53zm2.91-0.38v-0.75h-0.61c-0.9 0-1.41 0.4-1.41 1.07 0 0.54 0.35 0.83 0.91 0.83 0.65 0 1.11-0.49 1.11-1.15zm2.1-3.4h0.92v3.76l1.9-3.76h0.96v5.19h-0.91v-3.67l-1.89 3.67h-0.98v-5.19zm0.53-2.11h0.67c0.03 0.35 0.18 0.57 0.6 0.57 0.44 0 0.59-0.22 0.6-0.57h0.67c-0.02 0.77-0.49 1.24-1.27 1.24-0.74 0-1.24-0.47-1.27-1.24zm4.53 2.11h0.91v2.19h1.81v-2.19h0.91v5.19h-0.91v-2.28h-1.81v2.28h-0.91v-5.19zm4.46 3.78c0-1.13 0.96-1.77 2.29-1.77h0.61v-0.49c0-0.63-0.31-0.86-0.86-0.86s-0.83 0.34-0.94 0.92h-0.78c0.13-1.07 0.83-1.69 1.85-1.69 1.03 0 1.65 0.55 1.65 1.7v3.6h-0.82v-0.57c-0.35 0.45-0.79 0.69-1.36 0.69-0.94 0-1.64-0.55-1.64-1.53zm2.9-0.38v-0.75h-0.61c-0.9 0-1.4 0.4-1.4 1.07 0 0.54 0.34 0.83 0.9 0.83 0.66 0 1.11-0.49 1.11-1.15z" fill="#000"/>
</svg>